# xmcd
#
# Track frame offsets:
# 150
# 18942
# 39453
# 49290
# 64233
# 81626
# 108159
# 127574
# 147476
# 161488
# 171566
# 184933
# 199570
#
# Disc length: 2862 seconds
#
#
# Revision: 0
# Processed by: cddbd v1.5.2PL0 Copyright (c) Steve Scherf et al.
# Submitted via: FreeRIP 2.945 
#
DISCID=b40b2c0d
DTITLE=The Blues Bombers - The Blues Bombers
DYEAR=2007
DGENRE=Blues
TTITLE0=Adilata
TTITLE1=I Aint Drunk (I'm Just Drinking)
TTITLE2=Nowwhere To Go
TTITLE3=Bitch Got The Blues
TTITLE4=Red Headed Woman
TTITLE5=I Thought Love(Would Have Found Me By Now)
TTITLE6=Take Your Fine Frame Home
TTITLE7=Country Girl
TTITLE8=Rockin' Blues Boogie
TTITLE9=Night Hawke Boogie
TTITLE10=Rollin' Man
TTITLE11=Real Gone Mamma
TTITLE12=Take My Blues Away
EXTD=
EXTT0=
EXTT1=
EXTT2=
EXTT3=
EXTT4=
EXTT5=
EXTT6=
EXTT7=
EXTT8=
EXTT9=
EXTT10=
EXTT11=
EXTT12=
PLAYORDER=
